<svg width="24" height="24" viewBox="0 0 24 24" fill="none" xmlns="http://www.w3.org/2000/svg">
<g clip-path="url(#clip0_302_432)">
<path d="M23.714 12.2242C23.714 11.2409 23.6342 10.5234 23.4615 9.7793H12.2336V14.2173H18.8241C18.6913 15.3202 17.9738 16.9811 16.3792 18.0972L16.3569 18.2458L19.907 20.996L20.1529 21.0205C22.4117 18.9344 23.714 15.8649 23.714 12.2242Z" fill="white"/>
<path d="M12.2336 23.9178C15.4624 23.9178 18.173 22.8548 20.153 21.0211L16.3793 18.0978C15.3694 18.8021 14.0141 19.2937 12.2336 19.2937C9.07118 19.2937 6.38712 17.2076 5.43032 14.3242L5.29008 14.3361L1.59866 17.193L1.55038 17.3271C3.51692 21.2337 7.55634 23.9178 12.2336 23.9178Z" fill="#34A853"/>
<path d="M5.43032 14.324C5.17786 13.5799 5.03176 12.7826 5.03176 11.9588C5.03176 11.1349 5.17786 10.3377 5.41704 9.5936L5.41035 9.43513L1.67267 6.53241L1.55038 6.59058C0.73988 8.21168 0.274811 10.0321 0.274811 11.9588C0.274811 13.8855 0.73988 15.7058 1.55038 17.3269L5.43032 14.324Z" fill="#FBBC05"/>
<path d="M12.2336 4.62403C14.4791 4.62403 15.9939 5.59402 16.8576 6.40461L20.2326 3.10928C18.1599 1.1826 15.4624 0 12.2336 0C7.55634 0 3.51692 2.68406 1.55038 6.59056L5.41704 9.59359C6.38712 6.7102 9.07118 4.62403 12.2336 4.62403Z" fill="#EB4335"/>
</g>
<defs>
<clipPath id="clip0_302_432">
<rect width="23.46" height="24" fill="white" transform="translate(0.269989)"/>
</clipPath>
</defs>
</svg>
